# xmcd
#
# Track frame offsets:
#	150
#	18108
#	38224
#	54139
#	71217
#	88319
#	105192
#	117402
#	135690
#	153169
#	168468
#	186258
#	204337
#
# Disc length: 2960 seconds
#
# Revision: 1
# Processed by: cddbd v1.4PL0 Copyright (c) Steve Scherf et al.
# Submitted via: audiograbber 1.80
#
DISCID=a70b8e0d
DTITLE=Various Artist - Paris France. Золотая коллекция Радио 7. (2003)
DYEAR=1900
DGENRE=
TTITLE0=Laurent Voulzy. - La Fille D'Avril.
TTITLE1=Serge Gainsbourg and Jane Birkin. - Je T'aime Moi Non Plus.
TTITLE2=Sman. - J'ai Tout Imagine.
TTITLE3=Patricia Kaas. - Mademoiselle Chante Le Blues.
TTITLE4=Felix Gray. - T'attends Quoi.
TTITLE5=Marc Lavoine. - C'est La Vie.
TTITLE6=Enzo Enzo. - A Nos Chagrins D'Amour.
TTITLE7=Niagara. - Pendant Que Les Champes Brulent.
TTITLE8=Aimable. - C'est Si Bon.
TTITLE9=Nino Ferrer. - La Rua Madureira.
TTITLE10=Petula Clark. - C'est Le Refrain De Ma Vie.
TTITLE11=Pierre Bachelet. - Sans Toi.
TTITLE12=Sandrine Francois. - Il Faut Du Temps.
EXTD=
EXTT0=
EXTT1=
EXTT2=
EXTT3=
EXTT4=
EXTT5=
EXTT6=
EXTT7=
EXTT8=
EXTT9=
EXTT10=
EXTT11=
EXTT12=
PLAYORDER=
